<?xml version="1.0" encoding="utf-8"?>
<!-- Generator: $$$/GeneralStr/196=Adobe Illustrator 27.6.0, SVG Export Plug-In . SVG Version: 6.00 Build 0)  -->
<svg version="1.1" id="Ebene_1" xmlns="http://www.w3.org/2000/svg" xmlns:xlink="http://www.w3.org/1999/xlink" x="0px" y="0px"
	 viewBox="0 0 368.5 368.5" style="enable-background:new 0 0 368.5 368.5;" xml:space="preserve">
<style type="text/css">
	.st0{fill:#99B6CC;stroke:#99B6CC;stroke-width:6;stroke-linejoin:round;stroke-miterlimit:10;}
	.st1{fill:#CCDAE6;}
	.st2{fill:#004880;stroke:#004880;stroke-width:5;stroke-linejoin:round;stroke-miterlimit:10;}
	.st3{fill:#004880;stroke:#004880;stroke-width:16;stroke-linejoin:round;stroke-miterlimit:10;}
	.st4{fill:#FFFFFF;}
</style>
<g>
	<g>
		<polygon class="st0" points="302.05,349.71 66.45,349.71 66.45,16.51 246.96,16.51 302.05,78.08 		"/>
		<rect x="96.57" y="111.61" class="st1" width="175.36" height="6.89"/>
		<rect x="96.57" y="90.17" class="st1" width="175.36" height="6.89"/>
		<rect x="96.57" y="68.72" class="st1" width="175.36" height="6.89"/>
		<rect x="96.57" y="133.06" class="st1" width="175.36" height="6.89"/>
		<rect x="96.57" y="154.51" class="st1" width="175.36" height="6.89"/>
		<rect x="96.57" y="175.95" class="st1" width="175.36" height="6.89"/>
		<polygon class="st2" points="247.03,78.13 246.96,16.51 302.05,78.08 		"/>
	</g>
	<rect x="50.98" y="233.27" class="st3" width="266.55" height="95.36"/>
	<g>
		<path class="st4" d="M134.7,318.53c-5.5,2.91-12.36,4.36-20.57,4.36c-10.59,0-19.08-3.41-25.45-10.23
			c-6.37-6.82-9.56-15.77-9.56-26.85c0-11.91,3.58-21.53,10.75-28.88c7.17-7.34,16.25-11.01,27.26-11.01
			c7.06,0,12.91,1.02,17.55,3.06v9.3c-5.33-2.98-11.22-4.47-17.66-4.47c-8.55,0-15.48,2.86-20.8,8.57
			c-5.31,5.71-7.97,13.35-7.97,22.9c0,9.07,2.48,16.3,7.45,21.68c4.97,5.38,11.48,8.08,19.55,8.08c7.48,0,13.95-1.66,19.42-4.99
			V318.53z"/>
		<path class="st4" d="M156.92,318.63v-10.28c1.18,1.04,2.59,1.97,4.23,2.8s3.38,1.53,5.19,2.1c1.82,0.57,3.64,1.01,5.48,1.32
			c1.83,0.31,3.53,0.47,5.09,0.47c5.37,0,9.37-0.99,12.02-2.99s3.97-4.86,3.97-8.6c0-2.01-0.44-3.76-1.32-5.25
			c-0.88-1.49-2.1-2.85-3.66-4.08c-1.56-1.23-3.4-2.41-5.53-3.53c-2.13-1.12-4.42-2.31-6.88-3.56c-2.6-1.32-5.02-2.65-7.27-4
			c-2.25-1.35-4.21-2.84-5.87-4.47c-1.66-1.63-2.97-3.47-3.92-5.53c-0.95-2.06-1.43-4.47-1.43-7.24c0-3.39,0.74-6.34,2.23-8.85
			c1.49-2.51,3.45-4.58,5.87-6.21c2.42-1.63,5.18-2.84,8.28-3.63c3.1-0.8,6.26-1.2,9.48-1.2c7.34,0,12.69,0.88,16.05,2.65v9.81
			c-4.4-3.05-10.04-4.57-16.93-4.57c-1.9,0-3.81,0.2-5.71,0.6c-1.9,0.4-3.6,1.05-5.09,1.95c-1.49,0.9-2.7,2.06-3.64,3.48
			c-0.93,1.42-1.4,3.15-1.4,5.19c0,1.9,0.35,3.55,1.06,4.93c0.71,1.39,1.76,2.65,3.14,3.79c1.38,1.14,3.07,2.25,5.06,3.32
			c1.99,1.07,4.28,2.25,6.88,3.53c2.67,1.32,5.19,2.7,7.58,4.15s4.48,3.06,6.28,4.83s3.23,3.72,4.29,5.87
			c1.06,2.15,1.58,4.6,1.58,7.37c0,3.67-0.72,6.78-2.16,9.32c-1.44,2.54-3.38,4.61-5.82,6.21c-2.44,1.59-5.25,2.74-8.44,3.45
			s-6.54,1.06-10.07,1.06c-1.18,0-2.63-0.1-4.36-0.29c-1.73-0.19-3.5-0.47-5.3-0.83c-1.8-0.36-3.5-0.81-5.12-1.35
			C159.18,319.89,157.88,319.29,156.92,318.63z"/>
		<path class="st4" d="M282.79,247.17l-27.58,74.47h-9.61l-27-74.47h9.71l20.62,59.05c0.66,1.9,1.16,4.1,1.51,6.6h0.21
			c0.28-2.08,0.85-4.31,1.71-6.7l21.03-58.94H282.79z"/>
	</g>
</g>
<g>
</g>
<g>
</g>
<g>
</g>
<g>
</g>
<g>
</g>
</svg>
